<?xml version="1.0" encoding="utf-8"?>
<!-- Generator: Adobe Illustrator 27.5.0, SVG Export Plug-In . SVG Version: 6.00 Build 0)  -->
<svg version="1.1" id="Layer_1" xmlns="http://www.w3.org/2000/svg" xmlns:xlink="http://www.w3.org/1999/xlink" x="0px" y="0px"
	 viewBox="0 0 1750 1000" style="enable-background:new 0 0 1750 1000;" xml:space="preserve">
<g>
	<rect style="fill:#F2C7C1;" width="1749.982" height="999.996"/>
	<path style="fill:#004793;" d="M717.793,904.211C612.79,852.717,485.277,864.572,390.1,789.948
		C190.602,633.526,233.762,311.806,0,191.348v459.249c30.09,9.007,59.718,19.436,88.566,32.206
		c138.582,61.348,186.743,188.326,234.84,317.193h502.787C797.901,960.14,762.219,925.999,717.793,904.211z"/>
	<path style="fill:#0F6DB3;" d="M796.26,704.494C729.897,539.09,710.466,378.03,529.203,297.788
		c-159.29-70.514-342.157-69.875-497.594-150.086C20.783,142.115,10.264,136.119,0,129.795v61.553
		c233.762,120.458,190.602,442.178,390.1,598.6c95.177,74.624,222.69,62.769,327.693,114.263
		c44.426,21.788,80.108,55.929,108.4,95.785h211.333C928.013,930.026,839.797,812.991,796.26,704.494z"/>
	<path style="fill:#013C86;" d="M88.566,682.803C59.718,670.032,30.09,659.604,0,650.597v349.399h323.406
		C275.31,871.129,227.149,744.15,88.566,682.803z"/>
	<path style="fill:#45CDFF;" d="M1561.967,630.455c-77.203-52.165-164.233-86.681-246.899-128.856
		c-139.309-71.073-168.508-202.156-201.877-341.988C1086.71,48.682,933.587,127.518,771.324,0H211.315
		c63.481,58.407,125.347,118.682,202.695,158.595c155.439,80.206,338.304,79.569,497.595,150.083
		c181.266,80.244,200.69,241.305,267.056,406.704c41.353,103.054,123.008,213.801,224.936,284.614h346.387V800.606
		C1689.938,741.011,1632.255,677.952,1561.967,630.455z"/>
	<path style="fill:#1F94D2;" d="M1178.66,715.382c-66.365-165.398-85.79-326.459-267.056-406.704
		c-159.291-70.514-342.155-69.877-497.595-150.083C336.662,118.682,274.796,58.407,211.315,0H0v129.795
		c10.264,6.324,20.783,12.319,31.609,17.907c155.437,80.211,338.304,79.572,497.594,150.086
		C710.466,378.03,729.897,539.09,796.26,704.494c43.538,108.497,131.753,225.532,241.266,295.502h366.07
		C1301.668,929.183,1220.013,818.435,1178.66,715.382z"/>
	<path style="fill:#C4FEFF;" d="M1432.11,0c27.909,55.252,45.88,114.808,52.524,168.929
		c17.122,139.441-0.642,266.082,121.24,363.871c44.161,35.434,93.828,62.458,144.107,88.472V0H1432.11z"/>
	<path style="fill:#5BE7FE;" d="M1484.635,168.929C1477.99,114.808,1460.02,55.252,1432.11,0H771.324
		c162.263,127.518,315.386,48.682,341.867,159.611c33.369,139.832,62.568,270.915,201.877,341.988
		c82.666,42.176,169.696,76.691,246.899,128.856c70.288,47.497,127.972,110.556,188.016,170.15V621.271
		c-50.279-26.014-99.946-53.038-144.107-88.472C1483.993,435.01,1501.757,308.37,1484.635,168.929z"/>
	<linearGradient id="SVGID_1_" gradientUnits="userSpaceOnUse" x1="791.7152" y1="558.2252" x2="1077.2539" y2="1079.9495">
		<stop  offset="0" style="stop-color:#26A4DF;stop-opacity:0"/>
		<stop  offset="1" style="stop-color:#26A4DF"/>
	</linearGradient>
	<path style="fill:url(#SVGID_1_);" d="M854.731,523.913c-138.187-106.06-178.832-209.421-348.16-253.249
		c-18.559-4.805-43.541-6.783-72.779-7.104c32.447,9.458,64.377,20.49,95.411,34.228C710.466,378.03,729.897,539.09,796.26,704.494
		c43.538,108.497,131.753,225.532,241.266,295.502c0,0,192.596,0,192.621-0.005c-25.277,0.982-54.3-47.699-66.994-65.393
		c-63.648-88.733-75.56-206.435-151.771-287.21C964.832,598.049,908.002,564.801,854.731,523.913z"/>
	
		<linearGradient id="SVGID_00000158726629796423405650000013829988362744773262_" gradientUnits="userSpaceOnUse" x1="358.5343" y1="252.3257" x2="617.7023" y2="807.6854">
		<stop  offset="0" style="stop-color:#004793"/>
		<stop  offset="1" style="stop-color:#004793;stop-opacity:0"/>
	</linearGradient>
	<path style="opacity:0.8;fill:url(#SVGID_00000158726629796423405650000013829988362744773262_);" d="M894.649,869.765
		c-5.172-6.401-10.216-12.876-15.126-19.415c-25.434-30.391-56.003-56.152-92.481-74.039
		c-105.001-51.493-232.511-39.641-327.686-114.265C259.827,505.606,237.141,305.456,0,191.076v0.272
		c233.762,120.458,190.602,442.178,390.1,598.6c95.177,74.624,222.69,62.769,327.693,114.263
		c44.426,21.788,80.108,55.929,108.4,95.785h211.333C983.864,965.709,935.334,920.108,894.649,869.765z"/>
	
		<linearGradient id="SVGID_00000123398857181382730800000015459533798233232046_" gradientUnits="userSpaceOnUse" x1="1121" y1="573.6901" x2="1749.9824" y2="573.6901">
		<stop  offset="0" style="stop-color:#5BE7FE"/>
		<stop  offset="1" style="stop-color:#5BE7FE;stop-opacity:0"/>
	</linearGradient>
	<path style="opacity:0.8;fill:url(#SVGID_00000123398857181382730800000015459533798233232046_);" d="M1322.969,620.45
		c93.492,59.18,193.014,109.749,278.922,180.191c55.377,45.408,102.387,99.38,148.092,154.49V800.606
		c-60.044-59.595-117.728-122.653-188.016-170.15c-77.203-52.165-164.233-86.681-246.899-128.856
		C1186.66,436.088,1151.806,319.586,1121,192.249C1145.205,361.911,1165.434,520.727,1322.969,620.45z"/>
	
		<linearGradient id="SVGID_00000101103527968113440030000016308665602232946852_" gradientUnits="userSpaceOnUse" x1="211.3149" y1="194.1443" x2="1025.6992" y2="194.1443">
		<stop  offset="0" style="stop-color:#1F94D2"/>
		<stop  offset="1" style="stop-color:#1F94D2;stop-opacity:0"/>
	</linearGradient>
	<path style="opacity:0.6;fill:url(#SVGID_00000101103527968113440030000016308665602232946852_);" d="M484.449,0H211.315
		c63.481,58.407,125.347,118.682,202.695,158.595c155.439,80.206,338.304,79.569,497.595,150.083
		c48.146,21.314,84.872,48.328,114.095,79.61c-54.621-61.724-84.77-143.015-117.002-227.531C863.24,41.55,691.413,178.364,484.449,0
		z"/>
	
		<linearGradient id="SVGID_00000142882773526897841420000017191766656543628701_" gradientUnits="userSpaceOnUse" x1="1299.2523" y1="400.3028" x2="1749.9824" y2="400.3028">
		<stop  offset="0" style="stop-color:#96FBFF"/>
		<stop  offset="1" style="stop-color:#96FBFF;stop-opacity:0"/>
	</linearGradient>
	<path style="fill:url(#SVGID_00000142882773526897841420000017191766656543628701_);" d="M1605.875,532.8
		c-121.882-97.789-104.118-224.43-121.24-363.871C1477.99,114.808,1460.02,55.252,1432.11,0h-105.993
		c-26.906,103.161-50.072,196.841,16.383,301.987c73.363,116.076,193.39,195.91,259.976,316.644
		c11.819,21.429,21.188,43.696,29.104,66.468c41.214,36.48,79.318,76.717,118.402,115.506V621.271
		C1699.703,595.258,1650.036,568.233,1605.875,532.8z"/>
	
		<linearGradient id="SVGID_00000155135063092319544270000004299716964831332751_" gradientUnits="userSpaceOnUse" x1="1432.1104" y1="310.6357" x2="1749.9824" y2="310.6357">
		<stop  offset="0" style="stop-color:#96FBFF;stop-opacity:0"/>
		<stop  offset="1" style="stop-color:#FFFFFF"/>
	</linearGradient>
	<path style="fill:url(#SVGID_00000155135063092319544270000004299716964831332751_);" d="M1536.521,0h-104.41
		c27.909,55.252,45.88,114.808,52.524,168.929c17.122,139.441-0.642,266.082,121.24,363.871
		c44.161,35.434,93.828,62.458,144.107,88.472V379.941c-33.866-18.769-66.719-39.102-96.988-63.387
		C1545.054,229.95,1546.637,120.714,1536.521,0z"/>
	<path style="fill:#07386D;" d="M197.377,999.996C156.012,891.892,108.392,789.518,0,731.328v268.668H197.377z"/>
	
		<linearGradient id="SVGID_00000098919085819009147430000011407746172600773790_" gradientUnits="userSpaceOnUse" x1="0" y1="732.8318" x2="358.4272" y2="732.8318">
		<stop  offset="0" style="stop-color:#013C86;stop-opacity:0"/>
		<stop  offset="1" style="stop-color:#013C86"/>
	</linearGradient>
	<path style="opacity:0.8;fill:url(#SVGID_00000098919085819009147430000011407746172600773790_);" d="M28.009,477.263
		c-9.258-4.1-18.599-7.948-28.009-11.596v184.929c30.09,9.007,59.718,19.436,88.566,32.206
		c138.582,61.348,186.743,188.326,234.84,317.193h35.021C240.366,826.896,243.57,572.688,28.009,477.263z"/>
	
		<linearGradient id="SVGID_00000095322160433222015240000009700834533100484010_" gradientUnits="userSpaceOnUse" x1="866.3397" y1="299.4059" x2="222.2218" y2="530.6273">
		<stop  offset="0" style="stop-color:#1F94D2;stop-opacity:0"/>
		<stop  offset="1" style="stop-color:#1F94D2"/>
	</linearGradient>
	<path style="opacity:0.5;fill:url(#SVGID_00000095322160433222015240000009700834533100484010_);" d="M177.7,236.446
		c34.779,15.059,69.61,29.995,104.523,44.762c140.227,59.29,274.709,115.624,373.802,236.446
		c25.428,31.006,48.93,64.516,69.9,98.695c23.679,38.609,45.452,78.538,70.098,116.545c12.44,19.189,26.865,38.363,42.92,57.055
		c-16.973-28.409-31.35-57.219-42.684-85.454C729.897,539.09,710.466,378.03,529.203,297.788
		c-159.29-70.514-342.157-69.875-497.594-150.086C20.783,142.115,10.264,136.119,0,129.795c0,0,0-3.419,0.002,28.928
		c5.167,7.04,27.691,12.263,35.211,15.557c20.069,8.794,40.164,17.524,60.233,26.321C122.841,212.608,150.255,224.563,177.7,236.446
		z"/>
	
		<linearGradient id="SVGID_00000153692424049976879160000003455247425438048406_" gradientUnits="userSpaceOnUse" x1="2056.126" y1="-148.531" x2="-126.4599" y2="1049.863">
		<stop  offset="0" style="stop-color:#FFFFFF;stop-opacity:0"/>
		<stop  offset="0.463" style="stop-color:#231F20"/>
	</linearGradient>
	
		<rect style="opacity:0.8;fill:url(#SVGID_00000153692424049976879160000003455247425438048406_);" width="1749.982" height="999.991"/>
</g>
</svg>
