<?xml version="1.0" standalone="no"?><svg xmlns="http://www.w3.org/2000/svg" viewBox="0 0 1440 320"><path fill="#0c2c55" fill-opacity="1" d="M0,96L34.3,117.3C68.6,139,137,181,206,170.7C274.3,160,343,96,411,106.7C480,117,549,203,617,245.3C685.7,288,754,288,823,245.3C891.4,203,960,117,1029,117.3C1097.1,117,1166,203,1234,224C1302.9,245,1371,203,1406,181.3L1440,160L1440,0L1405.7,0C1371.4,0,1303,0,1234,0C1165.7,0,1097,0,1029,0C960,0,891,0,823,0C754.3,0,686,0,617,0C548.6,0,480,0,411,0C342.9,0,274,0,206,0C137.1,0,69,0,34,0L0,0Z"></path></svg>